<?xml version="1.0" standalone="no"?>
<!DOCTYPE svg PUBLIC "-//W3C//DTD SVG 1.1//EN" "http://www.w3.org/Graphics/SVG/1.1/DTD/svg11.dtd">
<svg xmlns="http://www.w3.org/2000/svg">
<defs >
<font id="Vazirmatn" horiz-adv-x="1159" ><font-face
    font-family="Vazirmatn Medium"
    units-per-em="2048"
    panose-1="0 0 0 0 0 0 0 0 0 0"
    ascent="2100"
    descent="-1100"
    alphabetic="0" />
<glyph unicode=" " horiz-adv-x="532" />
<glyph unicode="!" horiz-adv-x="578" d="M134 153Q134 88 179 45T289 1Q354 1 399 45T444 153Q444 217 399 261T289 305Q225 305 180 261T134 153ZM171 1392L194 460H390L412 1392H171Z" />
<glyph unicode="&quot;" horiz-adv-x="654" d="M270 1536V1399L235 1016H96V1388V1536H270ZM570 1536V1399L535 1016H396V1396V1536H570Z" />
<glyph unicode="#" horiz-adv-x="1235" d="M244 0L512 1456H676L408 0H244ZM634 0L902 1456H1066L798 0H634ZM1202 885H162V1040H1202V885ZM1127 410H86V565H1127V410Z" />
<glyph unicode="$" horiz-adv-x="1164" d="M689 1689V1390H535V1689H689ZM670 56V-212H517V56H670ZM821 379Q821 437 798 480T721 559T579 626Q451 671 356 727T208 867T155 1076Q155 1199 211 1289T369 1428T605 1477Q744 1477 845 1423T1002 1263T1057 1007H817Q817
1134 760 1207T603 1281Q532 1281 486 1255T419 1182T397 1077Q397 1020 419 977T494 900T642 830Q771 784 865 728T1011 589T1063 381Q1063 252 1004 162T838 26T590 -21Q501 -21 414 2T255 80T142 223T100 443H342Q342 365 363 313T420 231T500 188T590 175Q665
175 716 200T794 272T821 379Z" />
<glyph unicode="%" horiz-adv-x="1508" d="M100 1099V1176Q100 1259 136 1327T241 1436T407 1477Q507 1477 575 1436T680 1327T716 1176V1099Q716 1018 681 950T577 841T409 800Q311 800 242 841T136 950T100 1099ZM267 1176V1099Q267 1059 282 1023T330 965T409
943Q457 943 487 965T533 1023T548 1099V1176Q548 1217 533 1253T486 1312T407 1334Q361 1334 330 1312T283 1254T267 1176ZM802 279V357Q802 439 838 507T944 616T1110 657Q1210 657 1278 616T1382 507T1418 357V279Q1418 197 1383 129T1279 20T1112 -21Q1014
-21 945 20T839 129T802 279ZM970 357V279Q970 239 986 203T1035 145T1112 122Q1163 122 1194 144T1238 202T1252 279V357Q1252 419 1217 466T1110 514Q1039 514 1005 467T970 357ZM1170 1248L459 110L336 181L1047 1319L1170 1248Z" />
<glyph unicode="&amp;" horiz-adv-x="1313" d="M373 792L624 961Q687 1003 714 1043T741 1145Q741 1197 701 1241T588 1285Q511 1285 472 1234T432 1114Q432 1046 482 973T608 812L1296 0H1017L455 661Q346 792 277 894T208 1109Q208 1223 255 1305T388 1431T589
1476Q700 1476 780 1432T904 1314T948 1154Q948 1085 923 1028T854 924T752 835L447 613Q394 570 369 531T335 458T327 400Q327 336 354 284T435 202T566 171Q649 171 727 208T867 315T965 480T1002 693H1210Q1210 534 1163 401T1008 171Q1001 164 993 154T976
136Q890 57 784 19T557 -20Q412 -20 306 33T143 179T85 392Q85 481 122 548T223 674T373 792Z" />
<glyph unicode="&apos;" horiz-adv-x="343" d="M265 1536V1407L239 1022H82L83 1391V1536H265Z" />
<glyph unicode="(" horiz-adv-x="711" d="M344 591Q344 773 381 949T491 1267T673 1491L625 1629Q512 1573 422 1469T266 1225T167 923T132 589Q132 418 166 256T266 -44T421 -286T625 -447L673 -309Q564 -226 491 -84T381 233T344 591Z" />
<glyph unicode=")" horiz-adv-x="711" d="M367 591Q367 409 331 234T221 -84T38 -309L86 -447Q199 -390 289 -286T445 -44T544 257T579 591Q579 763 545 925T445 1226T290 1469T86 1629L38 1491Q147 1409 220 1267T330 949T367 591Z" />
<glyph unicode="*" horiz-adv-x="908" d="M128 699L338 974L28 1064L81 1228L389 1110L375 1457H549L533 1103L836 1221L889 1054L573 963L778 694L637 592L452 882L270 600L128 699Z" />
<glyph unicode="+" horiz-adv-x="1113" d="M651 426H984V614H651V958H462V614H129V426H462V54H651V426Z" />
<glyph unicode="," horiz-adv-x="458" d="M350 232L349 60Q349 -42 298 -150T163 -328L34 -253Q62 -208 85 -162T122 -64T136 51V232H350Z" />
<glyph unicode="-" horiz-adv-x="970" d="M841 425V612H129V425H841Z" />
<glyph unicode="." horiz-adv-x="586" d="M138 152Q138 87 183 44T293 0Q357 0 402 44T448 152Q448 216 403 260T293 304Q229 304 184 260T138 152Z" />
<glyph unicode="/" horiz-adv-x="798" d="M189 -125L756 1456H568L1 -125H189Z" />
<glyph unicode="0" horiz-adv-x="1164" d="M1059 850V612Q1059 384 1000 245T834 43T583 -20Q440 -20 332 43T164 245T104 612V850Q104 1078 163 1215T330 1414T581 1476Q725 1476 832 1415T999 1216T1059 850ZM818 578V886Q818 1032 791 1120T710 1246T581 1285Q506
1285 454 1247T374 1120T346 886V578Q346 432 373 343T454 213T583 172Q660 172 712 212T791 342T818 578Z" />
<glyph unicode="1" horiz-adv-x="1164" d="M768 1461V0H527V1175L170 1054V1253L739 1461H768Z" />
<glyph unicode="2" horiz-adv-x="1164" d="M1086 192V0H110V165L584 682Q662 770 707 834T770 949T789 1050Q789 1153 732 1219T570 1285Q489 1285 434 1250T351 1154T323 1013H82Q82 1140 140 1245T308 1413T573 1476Q792 1476 911 1368T1030 1075Q1030 984 992
895T885 718T729 539L414 192H1086Z" />
<glyph unicode="3" horiz-adv-x="1164" d="M393 837H537Q621 837 676 866T759 946T786 1063Q786 1132 762 1181T688 1258T562 1285Q498 1285 447 1260T365 1188T335 1077H93Q93 1193 154 1283T320 1424T558 1476Q699 1476 804 1430T969 1291T1028 1063Q1028 1001
999 937T913 821T771 736T574 703H393V837ZM393 649V781H574Q702 781 792 751T940 669T1023 549T1050 407Q1050 271 986 176T810 30T559 -20Q465 -20 379 6T225 83T118 212T78 392H319Q319 327 349 278T435 200T563 172Q678 172 743 233T808 407Q808 492 775 545T681
623T537 649H393Z" />
<glyph unicode="4" horiz-adv-x="1164" d="M1113 519V327H63L55 472L683 1456H876L667 1098L306 519H1113ZM931 1456V0H690V1456H931Z" />
<glyph unicode="5" horiz-adv-x="1164" d="M363 677L171 724L250 1456H1035V1252H450L410 895Q444 915 504 934T641 954Q778 954 877 895T1028 727T1081 466Q1081 332 1029 222T871 46T603 -20Q512 -20 429 6T279 85T173 215T127 394H363Q376 287 438 230T602
172Q683 172 735 210T813 316T839 473Q839 558 810 623T723 726T579 764Q493 764 448 739T363 677Z" />
<glyph unicode="6" horiz-adv-x="1164" d="M838 1465H868V1268H851Q722 1268 629 1228T475 1118T386 955T356 756V527Q356 411 389 332T479 213T605 172Q679 172 731 211T812 317T841 472Q841 554 814 623T734 732T603 773Q531 773 473 739T379 651T340 535L248
565Q259 689 314 779T460 917T665 965Q806 965 898 896T1035 716T1081 478Q1081 338 1025 226T862 47T608 -20Q491 -20 400 25T245 149T148 331T115 549V649Q115 815 157 962T286 1223T511 1400T838 1465Z" />
<glyph unicode="7" horiz-adv-x="1164" d="M1077 1456V1324L495 0H241L822 1264H68V1456H1077Z" />
<glyph unicode="8" horiz-adv-x="1164" d="M1062 397Q1062 261 999 168T828 28T583 -20Q447 -20 338 27T166 168T103 397Q103 517 165 607T335 748T581 799Q719 799 828 748T999 607T1062 397ZM820 409Q820 482 790 537T706 622T581 652Q509 652 456 622T374 537T344
409Q344 335 373 282T456 200T583 172Q656 172 709 200T791 281T820 409ZM1029 1073Q1029 964 972 879T813 746T583 697Q453 697 352 745T193 879T135 1073Q135 1203 192 1292T351 1429T582 1476Q712 1476 813 1429T971 1293T1029 1073ZM788 1065Q788 1130 763
1179T691 1257T582 1285Q519 1285 473 1258T402 1182T377 1065Q377 998 402 949T473 871T583 843Q646 843 692 871T763 948T788 1065Z" />
<glyph unicode="9" horiz-adv-x="1164" d="M304 190H324Q462 190 554 226T702 328T781 481T805 672V923Q805 1042 773 1122T685 1243T564 1284Q490 1284 438 1242T359 1129T332 973Q332 893 357 823T435 709T566 666Q622 666 669 687T751 746T806 829T828 923L920
895Q920 819 889 746T802 612T673 515T513 479Q374 479 281 547T140 726T93 967Q93 1107 149 1222T311 1407T565 1476Q683 1476 772 1430T922 1303T1014 1115T1045 885V800Q1045 671 1022 552T948 331T813 153T609 34T326 -9H304V190Z" />
<glyph unicode=":" horiz-adv-x="586" d="M138 741Q138 676 183 633T293 590Q357 590 402 634T448 742Q448 806 403 850T293 894Q229 894 184 850T138 741ZM138 153Q138 88 183 45T293 1Q357 1 402 45T448 153Q448 217 403 261T293 305Q229 305 184 261T138 153Z" />
<glyph unicode=";" horiz-adv-x="491" d="M113 1004Q113 939 158 896T268 852Q332 852 377 896T423 1004Q423 1068 378 1112T268 1156Q204 1156 159 1112T113 1004ZM367 232L366 60Q366 -42 315 -150T180 -328L51 -253Q79 -208 102 -162T139 -64T153 51V232H367Z" />
<glyph unicode="&lt;" horiz-adv-x="1042" d="M244 657L905 404V167L62 539V696L244 657ZM905 864L244 607L62 572V729L905 1100V864Z" />
<glyph unicode="=" horiz-adv-x="1139" d="M1007 227V410H144V227H1007ZM1007 621V805H144V621H1007Z" />
<glyph unicode="&gt;" horiz-adv-x="1064" d="M799 617L126 868V1101L990 730V572L799 617ZM126 401L801 657L990 697V540L126 168V401Z" />
<glyph unicode="?" horiz-adv-x="996" d="M575 429H352Q353 522 368 585T418 701T513 811Q559 855 596 894T655 978T677 1081Q677 1176 631 1227T494 1278Q419 1278 361 1234T300 1092H59Q61 1218 119 1304T275 1433T494 1476Q695 1476 807 1375T919 1090Q919
1002 884 931T793 798T672 675Q616 624 596 565T575 429ZM332 117Q332 171 369 208T470 246Q534 246 571 209T608 117Q608 63 571 26T470 -12Q406 -12 369 25T332 117Z" />
<glyph unicode="@" horiz-adv-x="1837" d="M1743 520Q1739 423 1714 327T1639 152T1509 26T1319 -21Q1184 -21 1114 70T1056 316L1107 883H1282L1232 316Q1226 255 1234 216T1261 156T1302 127T1348 119Q1421 119 1472 172T1553 315T1587 517Q1598 751 1535 921T1330
1184T963 1277Q756 1277 605 1174T367 889T271 471Q262 286 299 143T418 -101T619 -252T896 -304Q984 -304 1074 -284T1227 -231L1265 -364Q1195 -409 1090 -431T892 -453Q633 -453 451 -344T178 -28T98 471Q107 676 171 850T349 1152T618 1352T967 1423Q1227 1423
1403 1312T1667 997T1743 520ZM726 425Q718 334 732 271T780 174T869 141Q903 141 941 163T1015 239T1074 384L1150 297Q1104 141 1013 61T812 -20Q714 -20 648 35T551 191T533 425Q551 598 616 724T777 920T984 990Q1097 990 1161 958T1282 883L1188 763Q1159
790 1113 814T1002 838Q926 838 869 791T775 652T726 425Z" />
<glyph unicode="A" horiz-adv-x="1358" d="M715 1262L280 0H17L565 1456H733L715 1262ZM1079 0L643 1262L624 1456H793L1343 0H1079ZM1058 540V341H266V540H1058Z" />
<glyph unicode="B" horiz-adv-x="1293" d="M694 658H323L321 841H645Q769 841 835 895T902 1049Q902 1158 839 1207T642 1256H399V0H148V1456H642Q882 1456 1017 1361T1153 1063Q1153 973 1110 899T983 777T774 721L694 658ZM683 0H244L357 199H683Q809 199 874
261T939 425Q939 496 914 548T835 629T694 658H412L414 841H781L838 772Q958 768 1035 719T1151 592T1189 424Q1189 216 1055 108T683 0Z" />
<glyph unicode="C" horiz-adv-x="1337" d="M1008 474H1258Q1246 331 1178 220T987 44T688 -20Q508 -20 377 64T174 303T102 667V788Q102 997 174 1152T381 1391T697 1476Q871 1476 991 1412T1177 1235T1259 976H1009Q993 1117 924 1196T697 1275Q583 1275 507
1219T393 1054T354 790V667Q354 520 388 411T497 241T688 180Q795 180 861 214T962 313T1008 474Z" />
<glyph unicode="D" horiz-adv-x="1337" d="M571 0H260L262 199H571Q706 199 797 258T935 427T982 689V768Q982 925 935 1034T799 1199T580 1256H254V1456H580Q774 1456 921 1371T1151 1130T1234 766V689Q1234 480 1152 326T920 86T571 0ZM399 1456V0H148V1456H399Z" />
<glyph unicode="E" horiz-adv-x="1157" d="M1101 199V0H328V199H1101ZM399 1456V0H148V1456H399ZM1000 848V652H328V848H1000ZM1096 1456V1256H328V1456H1096Z" />
<glyph unicode="F" horiz-adv-x="1128" d="M399 1456V0H148V1456H399ZM993 819V620H335V819H993ZM1076 1456V1256H335V1456H1076Z" />
<glyph unicode="G" horiz-adv-x="1395" d="M1266 744V188Q1235 147 1170 99T996 15T727 -20Q545 -20 405 62T186 300T107 678V779Q107 999 179 1155T386 1393T707 1476Q886 1476 1003 1417T1185 1252T1266 1012H1020Q1008 1088 974 1148T876 1242T711 1277Q595
1277 517 1219T400 1050T361 781V678Q361 518 406 407T535 237T737 179Q823 179 878 193T965 228T1016 268V557H713V744H1266Z" />
<glyph unicode="H" horiz-adv-x="1453" d="M1110 848V649H337V848H1110ZM399 1456V0H148V1456H399ZM1303 1456V0H1053V1456H1303Z" />
<glyph unicode="I" horiz-adv-x="580" d="M416 1456V0H165V1456H416Z" />
<glyph unicode="J" horiz-adv-x="1138" d="M747 437V1456H997V437Q997 292 935 190T766 34T523 -20Q384 -20 277 27T108 171T47 417H299Q299 289 360 234T523 179Q588 179 638 208T718 295T747 437Z" />
<glyph unicode="K" horiz-adv-x="1294" d="M399 1456V0H148V1456H399ZM1274 1456L684 755L348 399L304 648L544 944L968 1456H1274ZM1004 0L525 690L698 861L1302 0H1004Z" />
<glyph unicode="L" horiz-adv-x="1106" d="M1060 199V0H329V199H1060ZM399 1456V0H148V1456H399Z" />
<glyph unicode="M" horiz-adv-x="1791" d="M250 1456H474L895 333L1315 1456H1539L983 0H805L250 1456ZM148 1456H361L398 484V0H148V1456ZM1428 1456H1642V0H1391V484L1428 1456Z" />
<glyph unicode="N" horiz-adv-x="1453" d="M1303 1456V0H1052L399 1043V0H148V1456H399L1054 411V1456H1303Z" />
<glyph unicode="O" horiz-adv-x="1411" d="M1309 768V688Q1309 468 1234 310T1023 66T707 -20Q529 -20 393 65T179 309T101 688V768Q101 988 178 1146T391 1390T705 1476Q885 1476 1021 1391T1233 1147T1309 768ZM1058 688V770Q1058 932 1016 1044T896 1213T705
1271Q595 1271 516 1214T395 1044T353 770V688Q353 525 395 413T517 242T707 184Q820 184 898 242T1017 412T1058 688Z" />
<glyph unicode="P" horiz-adv-x="1307" d="M701 543H322V742H701Q800 742 861 774T950 862T979 992Q979 1061 951 1121T861 1219T701 1256H399V0H148V1456H701Q870 1456 988 1397T1169 1233T1231 994Q1231 853 1169 752T989 597T701 543Z" />
<glyph unicode="Q" horiz-adv-x="1411" d="M919 194L1302 -110L1139 -253L763 48L919 194ZM1305 768V688Q1305 468 1230 310T1019 66T702 -20Q524 -20 388 65T174 309T96 688V768Q96 988 173 1146T386 1390T700 1476Q881 1476 1017 1391T1229 1147T1305 768ZM1053
688V770Q1053 932 1012 1044T891 1213T700 1271Q590 1271 512 1214T391 1044T348 770V688Q348 525 391 413T513 242T702 184Q815 184 893 242T1012 412T1053 688Z" />
<glyph unicode="R" horiz-adv-x="1289" d="M148 1456H663Q829 1456 946 1406T1125 1259T1188 1018Q1188 909 1148 826T1035 687T861 599L785 562H322L320 761H667Q757 761 817 793T907 880T938 1006Q938 1120 872 1188T663 1256H399V0H148V1456ZM979 0L637 654L900
655L1247 13V0H979Z" />
<glyph unicode="S" horiz-adv-x="1240" d="M914 375Q914 435 889 478T796 557T601 632Q463 674 354 731T183 872T120 1075Q120 1193 185 1283T368 1424T639 1476Q801 1476 918 1416T1099 1255T1163 1032H914Q914 1104 884 1159T792 1247T636 1279Q547 1279 488
1252T400 1179T371 1075Q371 1021 405 979T508 903T685 837Q846 789 953 727T1113 579T1166 377Q1166 254 1102 165T921 28T647 -20Q542 -20 441 8T256 93T124 237T75 440H326Q326 369 350 319T419 238T521 191T647 176Q735 176 794 201T884 271T914 375Z" />
<glyph unicode="T" horiz-adv-x="1248" d="M747 1456V0H498V1456H747ZM1204 1456V1256H45V1456H1204Z" />
<glyph unicode="U" horiz-adv-x="1340" d="M965 1456H1215V483Q1215 317 1143 205T948 37T672 -20Q515 -20 392 36T199 205T128 483V1456H378V483Q378 378 414 311T516 211T672 179Q762 179 827 211T929 310T965 483V1456Z" />
<glyph unicode="V" horiz-adv-x="1322" d="M647 266L1030 1456H1307L785 0H598L647 266ZM293 1456L673 266L725 0H537L17 1456H293Z" />
<glyph unicode="W" horiz-adv-x="1803" d="M513 327L803 1456H955L938 1165L628 0H470L513 327ZM296 1456L531 336L552 0H384L47 1456H296ZM1284 339L1516 1456H1766L1429 0H1261L1284 339ZM1014 1456L1301 324L1343 0H1185L880 1165L864 1456H1014Z" />
<glyph unicode="X" horiz-adv-x="1293" d="M339 1456L648 925L957 1456H1246L806 735L1257 0H965L648 541L331 0H38L490 735L49 1456H339Z" />
<glyph unicode="Y" horiz-adv-x="1251" d="M287 1456L625 761L963 1456H1241L751 536V0H498V536L8 1456H287Z" />
<glyph unicode="Z" horiz-adv-x="1235" d="M1166 199V0H155V199H1166ZM1143 1301L248 0H80V159L978 1456H1143V1301ZM1050 1456V1256H86V1456H1050Z" />
<glyph unicode="[" horiz-adv-x="555" d="M538 1493V1679H149V-326H538V-139H374V1493H538Z" />
<glyph unicode="\" horiz-adv-x="853" d="M626 -125L18 1456H259L867 -125H626Z" />
<glyph unicode="]" horiz-adv-x="555" d="M11 1679V1493H177V-139H11V-326H400V1679H11Z" />
<glyph unicode="^" horiz-adv-x="878" d="M449 1227L256 729H54L353 1456H493L449 1227ZM622 729L429 1227L385 1456H526L824 729H622Z" />
<glyph unicode="_" horiz-adv-x="917" d="M914 0V-188H2V0H914Z" />
<glyph unicode="`" horiz-adv-x="656" d="M329 1536L524 1235H323L56 1536H329Z" />
<glyph unicode="a" horiz-adv-x="1104" d="M734 217V733Q734 819 687 870T543 921Q484 921 441 901T374 847T350 770H110Q110 856 165 932T320 1055T556 1102Q678 1102 772 1061T921 938T976 731V250Q976 176 986 118T1017 16V0H770Q753 39 744 99T734 217ZM769
658L771 509H598Q463 509 395 461T327 325Q327 259 371 215T499 171Q573 171 628 201T716 276T750 361L828 254Q816 213 787 166T712 77T601 7T452 -20Q346 -20 263 22T133 137T86 302Q86 474 214 566T580 658H769Z" />
<glyph unicode="b" horiz-adv-x="1151" d="M125 1536H366V231L343 0H125V1536ZM1072 551V530Q1072 370 1025 246T883 51T652 -20Q517 -20 429 46T292 232T225 507V574Q243 731 292 850T428 1035T650 1102Q789 1102 883 1033T1024 839T1072 551ZM831 530V551Q831
648 809 729T735 859T590 908Q526 908 480 886T403 826T355 738T331 630V449Q340 374 369 312T453 212T592 174Q682 174 734 221T808 349T831 530Z" />
<glyph unicode="c" horiz-adv-x="1069" d="M566 172Q625 172 672 195T749 261T782 358H1009Q1007 253 947 167T788 31T569 -20Q404 -20 295 53T132 250T78 523V558Q78 708 132 831T295 1028T568 1102Q698 1102 796 1051T950 908T1009 695H782Q779 755 753 803T679
881T565 910Q468 910 415 859T340 727T319 558V523Q319 434 339 354T413 223T566 172Z" />
<glyph unicode="d" horiz-adv-x="1154" d="M784 224V1536H1026V0H807L784 224ZM80 529V550Q80 715 131 839T277 1033T505 1102Q636 1102 724 1036T862 850T930 571V504Q913 350 863 232T724 47T503 -20Q372 -20 277 51T131 247T80 529ZM321 550V529Q321 431 345
351T423 223T564 175Q646 175 699 211T782 308T824 446V627Q818 686 800 737T750 826T674 886T566 908Q479 908 425 860T346 730T321 550Z" />
<glyph unicode="e" horiz-adv-x="1097" d="M601 -20Q440 -20 324 49T145 236T81 504V544Q81 714 145 839T320 1033T572 1102Q727 1102 829 1034T983 847T1034 572V469H198V642H796V661Q794 726 771 783T699 875T571 910Q491 910 436 866T352 739T323 544V504Q323
410 357 335T458 215T615 171Q702 171 770 206T888 305L1015 182Q963 105 862 43T601 -20Z" />
<glyph unicode="f" horiz-adv-x="723" d="M450 0H209V1186Q209 1366 310 1461T586 1557Q622 1557 657 1553T725 1539L719 1353Q699 1358 676 1360T625 1362Q542 1362 496 1317T450 1186V0ZM673 1082V906H43V1082H673Z" />
<glyph unicode="g" horiz-adv-x="1161" d="M817 1082H1036V30Q1036 -116 974 -218T801 -373T544 -427Q482 -427 407 -409T261 -352T143 -248L256 -106Q314 -175 384 -207T531 -239Q654 -239 724 -171T795 25V837L817 1082ZM82 529V550Q82 715 134 839T284 1033T515
1102Q620 1102 694 1064T819 956T897 788T940 571V504Q923 350 874 232T736 47T513 -20Q381 -20 284 51T135 247T82 529ZM323 550V529Q323 431 349 351T431 223T573 175Q658 175 712 211T796 308T838 446V627Q832 686 814 737T764 826T686 886T575 908Q488 908
432 860T350 730T323 550Z" />
<glyph unicode="h" horiz-adv-x="1138" d="M362 1536V0H122V1536H362ZM320 581L242 582Q243 732 296 849T444 1034T666 1102Q773 1102 852 1062T974 933T1018 695V0H776V697Q776 775 754 821T688 887T583 908Q518 908 469 882T386 811T337 707T320 581Z" />
<glyph unicode="i" horiz-adv-x="522" d="M382 1082V0H140V1082H382ZM124 1366Q124 1421 160 1457T262 1494Q326 1494 363 1458T400 1366Q400 1312 363 1276T262 1240Q197 1240 161 1276T124 1366Z" />
<glyph unicode="j" horiz-adv-x="514" d="M136 1082H378V-94Q378 -260 293 -348T47 -437Q15 -437 -19 -433T-85 -420L-84 -232Q-63 -236 -40 -238T5 -241Q69 -241 102 -207T136 -94V1082ZM115 1366Q115 1421 152 1457T253 1494Q318 1494 354 1458T391 1366Q391
1312 355 1276T253 1240Q189 1240 152 1276T115 1366Z" />
<glyph unicode="k" horiz-adv-x="1068" d="M367 1536V0H125V1536H367ZM1039 1082L568 560L310 296L247 500L442 741L748 1082H1039ZM800 0L449 508L601 677L1079 0H800Z" />
<glyph unicode="l" horiz-adv-x="522" d="M382 1536V0H140V1536H382Z" />
<glyph unicode="m" horiz-adv-x="1784" d="M365 862V0H124V1082H351L365 862ZM326 581L244 582Q244 732 293 849T437 1034T675 1102Q823 1102 917 1013T1012 721V0H771V700Q771 779 748 824T681 888T577 908Q509 908 462 882T384 811T340 707T326 581ZM997 645L884
620Q885 751 933 860T1075 1036T1306 1102Q1416 1102 1495 1062T1617 933T1660 700V0H1418V701Q1418 783 1395 828T1328 890T1225 908Q1169 908 1127 888T1055 831T1012 747T997 645Z" />
<glyph unicode="n" horiz-adv-x="1140" d="M363 851V0H122V1082H349L363 851ZM320 581L242 582Q244 737 298 854T448 1036T674 1102Q779 1102 856 1063T975 935T1018 699V0H776V700Q776 778 754 823T689 888T583 908Q521 908 472 882T390 811T338 707T320 581Z" />
<glyph unicode="o" horiz-adv-x="1162" d="M78 529V552Q78 709 138 833T310 1029T580 1102Q739 1102 851 1030T1024 833T1084 552V529Q1084 373 1024 249T852 52T582 -20Q423 -20 311 52T138 248T78 529ZM319 552V529Q319 432 346 351T432 221T582 172Q672 172
730 220T815 350T843 529V552Q843 648 815 729T730 860T580 910Q489 910 432 861T347 730T319 552Z" />
<glyph unicode="p" horiz-adv-x="1151" d="M366 874V-416H125V1082H347L366 874ZM1071 551V530Q1071 373 1023 249T880 52T651 -20Q516 -20 427 45T287 226T219 492V573Q237 732 287 850T426 1035T649 1102Q786 1102 880 1033T1022 840T1071 551ZM830 530V551Q830
651 805 731T725 860T584 908Q520 908 474 887T397 827T349 739T325 629V435Q337 363 366 303T448 208T586 172Q673 172 726 221T805 351T830 530Z" />
<glyph unicode="q" d="M783 -416V867L811 1082H1026V-416H783ZM80 530V551Q80 716 130 840T275 1033T507 1102Q640 1102 728 1036T867 850T935 572V505Q918 351 868 233T729 47T505 -20Q370 -20 275 51T130 247T80 530ZM321 551V530Q321 432 346 351T424 221T565
172Q650 172 704 209T788 308T830 447V628Q823 687 805 738T756 828T678 888T567 910Q480 910 426 862T346 732T321 551Z" />
<glyph unicode="r" horiz-adv-x="724" d="M366 876V0H125V1082H355L366 876ZM697 1089L695 865Q673 869 648 871T597 873Q513 873 459 842T375 756T341 624L286 620Q286 755 322 864T430 1038T611 1102Q633 1102 658 1098T697 1089Z" />
<glyph unicode="s" horiz-adv-x="1054" d="M731 293Q731 329 713 358T645 412T496 456Q381 481 294 521T158 623T109 776Q109 865 159 938T304 1057T526 1102Q662 1102 759 1057T909 934T961 759H720Q720 824 672 874T526 924Q464 924 424 905T364 854T344 786Q344
750 363 724T431 677T568 637Q692 611 781 571T919 467T967 306Q967 211 913 137T761 22T529 -20Q382 -20 280 32T126 167T73 339H306Q310 272 343 233T427 176T532 158Q597 158 641 175T708 223T731 293Z" />
<glyph unicode="t" horiz-adv-x="682" d="M620 1082V906H10V1082H620ZM186 1347H427V299Q427 249 441 223T482 187T543 178Q568 178 591 181T628 187L629 3Q599 -6 560 -13T469 -20Q386 -20 322 9T222 106T186 284V1347Z" />
<glyph unicode="u" horiz-adv-x="1139" d="M775 255V1082H1017V0H789L775 255ZM809 480L890 482Q890 337 847 224T713 45T477 -20Q318 -20 219 74T119 383V1082H360V381Q360 303 384 258T448 194T536 175Q639 175 698 215T783 325T809 480Z" />
<glyph unicode="v" horiz-adv-x="1016" d="M476 191L741 1082H991L615 0H459L476 191ZM273 1082L543 187L556 0H400L22 1082H273Z" />
<glyph unicode="w" horiz-adv-x="1520" d="M418 240L668 1082H822L780 830L528 0H390L418 240ZM271 1082L466 236L482 0H328L35 1082H271ZM1056 246L1245 1082H1480L1188 0H1034L1056 246ZM848 1082L1095 250L1126 0H988L733 831L691 1082H848Z" />
<glyph unicode="x" horiz-adv-x="1030" d="M308 1082L514 723L724 1082H989L661 551L1002 0H737L517 374L297 0H31L371 551L44 1082H308Z" />
<glyph unicode="y" horiz-adv-x="1003" d="M438 118L732 1082H990L556 -165Q541 -205 517 -252T455 -341T359 -410T221 -437Q189 -437 160 -432T104 -420L103 -236Q113 -237 127 -238T151 -239Q241 -239 287 -206T360 -92L438 118ZM272 1082L529 272L572 18L405
-25L12 1082H272Z" />
<glyph unicode="z" horiz-adv-x="1030" d="M961 192V0H155V192H961ZM939 932L237 0H81V155L779 1082H939V932ZM846 1082V890H93V1082H846Z" />
<glyph unicode="{" horiz-adv-x="683" d="M606 1597L654 1460Q551 1425 513 1336T474 1132V926Q474 826 432 744T297 614T56 566V704Q159 704 204 764T249 926V1132Q249 1237 281 1328T392 1489T606 1597ZM654 -226L606 -364Q470 -325 392 -256T282 -95T249 102V306Q249
408 204 468T56 529V668Q205 668 297 620T431 490T474 306V102Q474 -14 513 -102T654 -226Z" />
<glyph unicode="|" horiz-adv-x="509" d="M336 1456V-270H175V1456H336Z" />
<glyph unicode="}" horiz-adv-x="683" d="M28 1460L76 1597Q213 1559 291 1490T401 1329T433 1132V926Q433 824 479 764T627 704V572Q479 572 386 618T251 745T208 926V1132Q208 1247 170 1336T28 1460ZM76 -364L28 -226Q132 -191 170 -103T208 102V306Q208 408
250 488T386 614T627 661V529Q525 529 479 469T433 306V102Q433 -3 401 -94T291 -255T76 -364Z" />
<glyph unicode="~" horiz-adv-x="1357" d="M1054 785L1239 786Q1239 671 1197 582T1082 442T911 390Q827 390 763 423T624 525Q578 569 538 592T452 616Q385 616 346 564T307 426H117Q117 542 158 630T274 766T444 815Q528 815 595 780T733 680Q781 634 820 611T903
588Q970 588 1012 644T1054 785Z" />
<glyph unicode="&#xa0;" horiz-adv-x="532" />
<glyph unicode="&#xa1;" horiz-adv-x="543" d="M146 -365L171 662H377L402 -365H146ZM409 973Q409 919 373 882T271 844Q207 844 170 881T133 973Q133 1027 170 1064T271 1101Q336 1101 372 1064T409 973Z" />
<glyph unicode="&#xa2;" horiz-adv-x="1154" d="M685 1318V1029H494V1318H685ZM685 43V-245H494V43H685ZM591 172Q650 172 698 195T775 261T807 358H1035Q1032 253 972 167T813 31T594 -20Q429 -20 320 53T157 250T103 523V558Q103 708 157 831T320 1028T593 1102Q723
1102 821 1051T975 908T1035 695H807Q804 755 778 803T704 881T590 910Q493 910 440 859T365 727T344 558V523Q344 434 364 354T439 223T591 172Z" />
<glyph unicode="&#xa3;" horiz-adv-x="1205" d="M1146 0H99V199H1145L1146 0ZM820 600H95V795H820V600ZM496 1039L519 419Q520 323 485 248T368 129L186 199Q219 207 236 241T260 322T267 410L246 1039Q246 1177 303 1274T462 1424T694 1476Q902 1476 1015 1365T1129
1073H887Q887 1148 859 1192T786 1257T687 1277Q605 1277 551 1216T496 1039Z" />
<glyph unicode="&#xa4;" horiz-adv-x="1438" d="M304 608Q304 515 336 433T426 290T559 195T722 160Q809 160 884 194T1017 290T1107 433T1139 608Q1139 702 1107 783T1018 925T885 1020T722 1055Q635 1055 560 1021T427 925T337 783T304 608ZM127 608Q127 741
173 855T301 1054T491 1186T722 1234Q845 1234 953 1187T1143 1054T1271 855T1317 608Q1317 475 1271 361T1143 162T953 28T722 -20Q599 -20 491 28T302 161T174 361T127 608ZM1358 1125L1156 919L1020 1059L1222 1265L1358 1125ZM428 180L226 -26L92 113L294 318L428
180ZM1222 -27L1020 179L1156 318L1358 113L1222 -27ZM294 919L92 1125L226 1264L428 1058L294 919Z" />
<glyph unicode="&#xa5;" horiz-adv-x="1088" d="M971 739V590H103V739H971ZM971 448V300H103V448H971ZM480 689L808 1456H1074L656 580H510L480 689ZM282 1456L613 681L579 580H433L13 1456H282ZM665 766V0H415V766H665Z" />
<glyph unicode="&#xa6;" horiz-adv-x="504" d="M362 -270H137V523H362V-270ZM362 1456V698H137V1456H362Z" />
<glyph unicode="&#xa7;" horiz-adv-x="1273" d="M687 124V254Q800 254 862 306T925 440Q925 496 896 534T796 606T601 677Q454 718 349 768T187 898T131 1103Q131 1216 193 1300T368 1430T636 1477Q872 1477 1007 1367T1142 1048H901Q901 1114 871 1167T782 1253T636
1285Q498 1285 435 1232T372 1105Q372 1047 397 1010T492 944T688 879Q839 839 945 788T1108 658T1164 456Q1164 296 1034 210T687 124ZM555 875V743Q442 743 390 691T337 559Q337 499 362 460T457 390T657 322Q808 280 913 230T1073 102T1129 -104Q1129 -281 992
-377T626 -474Q527 -474 432 -453T260 -383T138 -252T92 -50L333 -48Q333 -116 359 -161T427 -233T522 -270T626 -282Q752 -282 820 -233T888 -106Q888 -53 860 -16T762 52T570 120Q422 160 316 211T153 341T96 543Q96 698 221 786T555 875Z" />
<glyph unicode="&#xa8;" horiz-adv-x="914" d="M99 1369Q99 1418 133 1451T223 1485Q280 1485 314 1452T348 1369Q348 1321 314 1288T223 1254Q167 1254 133 1287T99 1369ZM562 1368Q562 1417 596 1450T687 1484Q743 1484 777 1451T812 1368Q812 1320 778 1287T687
1253Q630 1253 596 1286T562 1368Z" />
<glyph unicode="&#xa9;" horiz-adv-x="1609" d="M969 597H1119Q1119 440 1030 362T786 283Q626 283 533 390T439 670V787Q439 959 532 1066T786 1174Q940 1174 1030 1096T1120 860H970Q970 958 924 1000T786 1043Q721 1043 677 1011T610 920T587 788V670Q587 557
637 486T786 414Q877 414 923 456T969 597ZM207 729Q207 596 253 482T380 282T569 149T800 101Q922 101 1029 148T1218 281T1345 482T1391 729Q1391 862 1345 976T1218 1175T1029 1307T800 1355Q677 1355 570 1308T381 1175T253 976T207 729ZM90 729Q90 888 145
1024T298 1261T524 1419T800 1476Q947 1476 1075 1420T1301 1262T1454 1024T1509 729Q1509 570 1454 434T1302 196T1076 36T800 -21Q653 -21 525 36T298 195T145 434T90 729Z" />
<glyph unicode="&#xaa;" horiz-adv-x="912" d="M588 862V1202Q588 1265 558 1299T467 1333Q400 1333 362 1307T323 1230L158 1244Q158 1345 242 1411T467 1477Q597 1477 676 1408T756 1201V887Q756 838 762 794T782 706H612Q588 779 588 862ZM629 1149L630 1036H483Q393
1036 352 1002T310 922Q310 880 339 856T432 831Q474 831 516 850T588 897T617 949L635 836Q620 804 589 770T509 714T391 692Q271 692 207 753T142 918Q142 1028 226 1088T482 1149H629Z" />
<glyph unicode="&#xab;" horiz-adv-x="944" d="M470 81Q381 209 336 300T291 474Q291 557 335 647T470 865L353 976Q221 825 158 706T94 474Q94 362 158 243T353 -29L470 81ZM841 81Q752 209 707 300T662 474Q662 557 706 647T841 865L724 976Q593 826 528 707T462
474Q462 362 527 242T724 -29L841 81Z" />
<glyph unicode="&#xac;" horiz-adv-x="1131" d="M959 802V637H127V802H959ZM959 727V375H769V727H959Z" />
<glyph unicode="&#xad;" horiz-adv-x="696" d="M841 425V612H129V425H841Z" />
<glyph unicode="&#xae;" horiz-adv-x="1610" d="M824 654H608L606 784H799Q865 786 915 816T965 903Q965 977 926 1006T786 1036H653V317H508V1165H786Q935 1165 1022 1100T1109 907Q1109 825 1053 772T892 689Q889 689 886 682T879 675Q862 665 858 661T849 655T824
654ZM814 654L835 753Q991 753 1048 686T1105 514V460Q1105 423 1108 390T1122 333V317H973Q963 343 962 391T960 461V513Q960 586 927 620T814 654ZM207 729Q207 596 252 482T380 282T569 149T799 101Q922 101 1029 148T1217 281T1344 482T1390 729Q1390 862 1344
976T1217 1175T1029 1307T799 1355Q677 1355 570 1308T380 1175T253 976T207 729ZM89 729Q89 888 144 1024T297 1261T523 1419T799 1476Q946 1476 1074 1420T1300 1262T1453 1024T1509 729Q1509 570 1454 434T1301 196T1075 36T799 -21Q652 -21 524 36T297 195T144
434T89 729Z" />
<glyph unicode="&#xaf;" horiz-adv-x="986" d="M836 1450V1296H157V1450H836Z" />
<glyph unicode="&#xb0;" horiz-adv-x="783" d="M129 1209Q129 1282 165 1343T261 1440T393 1477Q465 1477 524 1441T618 1343T654 1209Q654 1136 619 1076T524 980T393 945Q322 945 262 980T165 1075T129 1209ZM264 1209Q264 1155 302 1119T393 1082Q446 1082
482 1118T518 1209Q518 1265 482 1302T393 1339Q340 1339 302 1302T264 1209Z" />
<glyph unicode="&#xb1;" horiz-adv-x="1098" d="M1008 899V703H92V899H1008ZM664 1277V313H451V1277H664ZM974 194V1H123V194H974Z" />
<glyph unicode="&#xb2;" horiz-adv-x="757" d="M688 812V667H79V789L366 1054Q428 1109 453 1152T479 1224Q479 1267 451 1294T370 1322Q306 1322 275 1287T243 1200H61Q61 1273 97 1334T201 1431T363 1467Q504 1467 583 1403T662 1225Q662 1141 609 1077T456
930L315 812H688Z" />
<glyph unicode="&#xb3;" horiz-adv-x="757" d="M270 1132H357Q421 1132 453 1159T485 1231Q485 1267 458 1294T366 1322Q317 1322 284 1302T250 1244H68Q68 1315 108 1365T215 1441T361 1467Q498 1467 582 1410T667 1242Q667 1185 632 1141T534 1073T387 1048H270V1132ZM270
1007V1089H387Q480 1089 546 1068T646 1002T681 888Q681 777 590 717T362 656Q287 656 217 680T101 758T55 897H238Q238 858 274 830T371 802Q436 802 467 830T499 902Q499 959 461 983T357 1007H270Z" />
<glyph unicode="&#xb4;" horiz-adv-x="660" d="M111 1235L306 1536H578L306 1235H111Z" />
<glyph unicode="&#xb5;" horiz-adv-x="1217" d="M818 1082H1060V0H837L818 250V1082ZM853 503L948 505Q948 354 910 235T791 48T587 -21Q513 -21 454 0T352 68T281 188L250 461H387Q387 341 413 279T484 195T587 172Q692 172 749 215T830 332T853 503ZM147 1082H387V-416H147V1082Z"
/>
<glyph unicode="&#xb6;" horiz-adv-x="1002" d="M852 0H651V520H565Q406 520 297 580T130 747T73 988Q73 1122 130 1228T296 1395T565 1456H852V0Z" />
<glyph unicode="&#xb7;" horiz-adv-x="580" d="M144 713Q144 769 181 807T285 846Q351 846 388 808T426 713Q426 657 389 620T285 582Q219 582 182 619T144 713Z" />
<glyph unicode="&#xb8;" horiz-adv-x="531" d="M139 4H318L306 -52Q363 -62 410 -100T458 -225Q458 -326 375 -387T129 -449L122 -313Q161 -313 192 -304T241 -274T260 -222Q260 -176 224 -159T108 -135L139 4Z" />
<glyph unicode="&#xb9;" horiz-adv-x="757" d="M513 1455V667H332V1243L130 1194V1337L494 1455H513Z" />
<glyph unicode="&#xba;" horiz-adv-x="935" d="M121 1043V1123Q121 1278 214 1377T465 1477Q624 1477 716 1378T808 1123V1043Q808 889 717 790T467 691Q307 691 214 790T121 1043ZM289 1123V1043Q289 953 332 893T467 832Q555 832 598 892T642 1043V1123Q642
1212 598 1272T465 1333Q375 1333 332 1273T289 1123Z" />
<glyph unicode="&#xbb;" horiz-adv-x="944" d="M474 81L591 -29Q722 123 786 242T850 474Q850 587 786 706T591 976L474 865Q564 738 608 648T652 474Q652 391 608 300T474 81ZM103 81L220 -29Q350 122 416 242T482 474Q482 587 417 706T220 976L103 865Q192 738
236 648T281 474Q281 391 237 300T103 81Z" />
<glyph unicode="&#xbc;" horiz-adv-x="1482" d="M478 1452V664H297V1240L95 1191V1334L459 1452H478ZM1162 1256L451 118L327 189L1038 1327L1162 1256ZM1405 313V165H766L756 283L1123 789H1266L1109 539L933 313H1405ZM1307 789V0H1125V789H1307Z" />
<glyph unicode="&#xbd;" horiz-adv-x="1570" d="M1119 1256L408 118L284 189L995 1327L1119 1256ZM466 1455V667H285V1243L83 1194V1337L447 1455H466ZM1477 145V0H868V122L1155 387Q1217 442 1242 485T1268 557Q1268 600 1240 627T1159 655Q1095 655 1064 620T1032
533H850Q850 606 886 667T990 764T1152 800Q1293 800 1372 736T1451 558Q1451 474 1398 410T1245 263L1104 145H1477Z" />
<glyph unicode="&#xbe;" horiz-adv-x="1628" d="M1309 1256L598 118L474 189L1185 1327L1309 1256ZM1536 313V165H897L887 283L1254 789H1397L1240 539L1064 313H1536ZM1438 789V0H1256V789H1438ZM317 1132H404Q468 1132 500 1159T532 1231Q532 1267 505 1294T413
1322Q364 1322 331 1302T297 1244H115Q115 1315 155 1365T262 1441T408 1467Q545 1467 629 1410T714 1242Q714 1185 679 1141T581 1073T434 1048H317V1132ZM317 1007V1089H434Q527 1089 593 1068T693 1002T728 888Q728 777 637 717T409 656Q334 656 264 680T148
758T102 897H285Q285 858 321 830T418 802Q483 802 514 830T546 902Q546 959 508 983T404 1007H317Z" />
<glyph unicode="&#xbf;" horiz-adv-x="997" d="M408 662H631Q631 569 617 507T569 394T475 283Q431 239 394 199T335 113T312 4Q312 -91 361 -139T498 -188Q576 -188 634 -142T694 1H935Q934 -125 876 -211T721 -342T501 -386Q297 -386 184 -286T70 0Q70 90 106
163T198 299T318 421Q355 456 374 492T401 570T408 662ZM655 974Q655 920 619 883T518 845Q453 845 416 882T379 974Q379 1028 416 1065T518 1102Q582 1102 618 1065T655 974Z" />
<glyph unicode="&#xc0;" horiz-adv-x="1358" d="M715 1262L280 0H17L565 1456H733L715 1262ZM1079 0L643 1262L624 1456H793L1343 0H1079ZM1058 540V341H266V540H1058ZM612 1847L807 1546H606L339 1847H612Z" />
<glyph unicode="&#xc1;" horiz-adv-x="1358" d="M715 1262L280 0H17L565 1456H733L715 1262ZM1079 0L643 1262L624 1456H793L1343 0H1079ZM1058 540V341H266V540H1058ZM561 1546L756 1847H1028L756 1546H561Z" />
<glyph unicode="&#xc2;" horiz-adv-x="1358" d="M715 1262L280 0H17L565 1456H733L715 1262ZM1079 0L643 1262L624 1456H793L1343 0H1079ZM1058 540V341H266V540H1058ZM753 1847L1030 1571V1560H835L682 1717L529 1560H338V1573L611 1847H753Z" />
<glyph unicode="&#xc3;" horiz-adv-x="1358" d="M715 1262L280 0H17L565 1456H733L715 1262ZM1079 0L643 1262L624 1456H793L1343 0H1079ZM1058 540V341H266V540H1058ZM901 1834L1048 1823Q1048 1750 1019 1693T940 1602T827 1569Q778 1569 744 1583T682 1615T625
1646T555 1660Q517 1660 491 1632T464 1557L316 1565Q316 1637 345 1695T424 1787T537 1821Q578 1821 611 1808T675 1776T738 1744T809 1730Q847 1730 874 1759T901 1834Z" />
<glyph unicode="&#xc4;" horiz-adv-x="1358" d="M715 1262L280 0H17L565 1456H733L715 1262ZM1079 0L643 1262L624 1456H793L1343 0H1079ZM1058 540V341H266V540H1058ZM327 1680Q327 1729 361 1762T451 1796Q508 1796 542 1763T576 1680Q576 1632 542 1599T451
1565Q395 1565 361 1598T327 1680ZM790 1679Q790 1728 824 1761T915 1795Q971 1795 1005 1762T1040 1679Q1040 1631 1006 1598T915 1564Q858 1564 824 1597T790 1679Z" />
<glyph unicode="&#xc5;" horiz-adv-x="1358" d="M715 1262L280 0H17L565 1456H733L715 1262ZM1079 0L643 1262L624 1456H793L1343 0H1079ZM1058 540V341H266V540H1058ZM464 1731Q464 1816 526 1876T683 1937Q776 1937 838 1877T901 1731Q901 1645 839 1587T683
1529Q589 1529 527 1587T464 1731ZM571 1731Q571 1687 602 1654T683 1620Q733 1620 763 1653T794 1731Q794 1777 764 1810T683 1844Q633 1844 602 1811T571 1731Z" />
<glyph unicode="&#xc6;" horiz-adv-x="1918" d="M984 1304L283 0H-4L824 1456H977L984 1304ZM1105 554V344H358V554H1105ZM1870 193V0H1137V193H1870ZM1161 1456L1222 0H981L920 1456H1161ZM1727 849V656H1097V849H1727ZM1808 1456V1263H1076V1456H1808Z" />
<glyph unicode="&#xc7;" horiz-adv-x="1337" d="M1008 474H1258Q1246 331 1178 220T987 44T688 -20Q508 -20 377 64T174 303T102 667V788Q102 997 174 1152T381 1391T697 1476Q871 1476 991 1412T1177 1235T1259 976H1009Q993 1117 924 1196T697 1275Q583 1275
507 1219T393 1054T354 790V667Q354 520 388 411T497 241T688 180Q795 180 861 214T962 313T1008 474ZM598 -2H777L765 -58Q822 -68 869 -106T917 -231Q917 -332 834 -393T588 -455L581 -319Q620 -319 651 -310T700 -280T719 -228Q719 -182 683 -165T567 -141L598
-2Z" />
<glyph unicode="&#xc8;" horiz-adv-x="1157" d="M1101 199V0H328V199H1101ZM399 1456V0H148V1456H399ZM1000 848V652H328V848H1000ZM1096 1456V1256H328V1456H1096ZM558 1854L753 1553H552L285 1854H558Z" />
<glyph unicode="&#xc9;" horiz-adv-x="1157" d="M1101 199V0H328V199H1101ZM399 1456V0H148V1456H399ZM1000 848V652H328V848H1000ZM1096 1456V1256H328V1456H1096ZM507 1553L702 1854H974L702 1553H507Z" />
<glyph unicode="&#xca;" horiz-adv-x="1157" d="M1101 199V0H328V199H1101ZM399 1456V0H148V1456H399ZM1000 848V652H328V848H1000ZM1096 1456V1256H328V1456H1096ZM700 1854L977 1578V1567H782L629 1724L476 1567H285V1580L558 1854H700Z" />
<glyph unicode="&#xcb;" horiz-adv-x="1157" d="M1101 199V0H328V199H1101ZM399 1456V0H148V1456H399ZM1000 848V652H328V848H1000ZM1096 1456V1256H328V1456H1096ZM273 1687Q273 1736 307 1769T397 1803Q454 1803 488 1770T522 1687Q522 1639 488 1606T397 1572Q341
1572 307 1605T273 1687ZM736 1686Q736 1735 770 1768T861 1802Q917 1802 951 1769T986 1686Q986 1638 952 1605T861 1571Q804 1571 770 1604T736 1686Z" />
<glyph unicode="&#xcc;" horiz-adv-x="580" d="M416 1456V0H165V1456H416ZM220 1854L415 1553H214L-53 1854H220Z" />
<glyph unicode="&#xcd;" horiz-adv-x="580" d="M416 1456V0H165V1456H416ZM169 1553L364 1854H636L364 1553H169Z" />
<glyph unicode="&#xce;" horiz-adv-x="580" d="M416 1456V0H165V1456H416ZM361 1854L638 1578V1567H443L290 1724L137 1567H-54V1580L219 1854H361Z" />
<glyph unicode="&#xcf;" horiz-adv-x="580" d="M416 1456V0H165V1456H416ZM-66 1687Q-66 1736 -32 1769T58 1803Q115 1803 149 1770T183 1687Q183 1639 149 1606T58 1572Q2 1572 -32 1605T-66 1687ZM397 1686Q397 1735 431 1768T522 1802Q578 1802 612 1769T647
1686Q647 1638 613 1605T522 1571Q465 1571 431 1604T397 1686Z" />
<glyph unicode="&#xd0;" horiz-adv-x="1367" d="M601 0H290L292 199H601Q736 199 827 258T965 427T1012 689V768Q1012 925 965 1034T829 1199T610 1256H284V1456H610Q804 1456 951 1371T1181 1130T1264 766V689Q1264 480 1182 326T950 86T601 0ZM429 1456V0H178V1456H429ZM695
820V654H23V820H695Z" />
<glyph unicode="&#xd1;" horiz-adv-x="1453" d="M1303 1456V0H1052L399 1043V0H148V1456H399L1054 411V1456H1303ZM945 1834L1092 1823Q1092 1750 1063 1693T984 1602T871 1569Q822 1569 788 1583T726 1615T669 1646T599 1660Q561 1660 535 1632T508 1557L360
1565Q360 1637 389 1695T468 1787T581 1821Q622 1821 655 1808T719 1776T782 1744T853 1730Q891 1730 918 1759T945 1834Z" />
<glyph unicode="&#xd2;" horiz-adv-x="1411" d="M1309 768V688Q1309 468 1234 310T1023 66T707 -20Q529 -20 393 65T179 309T101 688V768Q101 988 178 1146T391 1390T705 1476Q885 1476 1021 1391T1233 1147T1309 768ZM1058 688V770Q1058 932 1016 1044T896 1213T705
1271Q595 1271 516 1214T395 1044T353 770V688Q353 525 395 413T517 242T707 184Q820 184 898 242T1017 412T1058 688ZM636 1848L831 1547H630L363 1848H636Z" />
<glyph unicode="&#xd3;" horiz-adv-x="1411" d="M1309 768V688Q1309 468 1234 310T1023 66T707 -20Q529 -20 393 65T179 309T101 688V768Q101 988 178 1146T391 1390T705 1476Q885 1476 1021 1391T1233 1147T1309 768ZM1058 688V770Q1058 932 1016 1044T896 1213T705
1271Q595 1271 516 1214T395 1044T353 770V688Q353 525 395 413T517 242T707 184Q820 184 898 242T1017 412T1058 688ZM585 1547L780 1848H1052L780 1547H585Z" />
<glyph unicode="&#xd4;" horiz-adv-x="1411" d="M1309 768V688Q1309 468 1234 310T1023 66T707 -20Q529 -20 393 65T179 309T101 688V768Q101 988 178 1146T391 1390T705 1476Q885 1476 1021 1391T1233 1147T1309 768ZM1058 688V770Q1058 932 1016 1044T896 1213T705
1271Q595 1271 516 1214T395 1044T353 770V688Q353 525 395 413T517 242T707 184Q820 184 898 242T1017 412T1058 688ZM777 1848L1054 1572V1561H859L706 1718L553 1561H362V1574L635 1848H777Z" />
<glyph unicode="&#xd5;" horiz-adv-x="1411" d="M1309 768V688Q1309 468 1234 310T1023 66T707 -20Q529 -20 393 65T179 309T101 688V768Q101 988 178 1146T391 1390T705 1476Q885 1476 1021 1391T1233 1147T1309 768ZM1058 688V770Q1058 932 1016 1044T896 1213T705
1271Q595 1271 516 1214T395 1044T353 770V688Q353 525 395 413T517 242T707 184Q820 184 898 242T1017 412T1058 688ZM925 1836L1072 1825Q1072 1752 1043 1695T964 1604T851 1571Q802 1571 768 1585T706 1617T649 1648T579 1662Q541 1662 515 1634T488 1559L340
1567Q340 1639 369 1697T448 1789T561 1823Q602 1823 635 1810T699 1778T762 1746T833 1732Q871 1732 898 1761T925 1836Z" />
<glyph unicode="&#xd6;" horiz-adv-x="1411" d="M1309 768V688Q1309 468 1234 310T1023 66T707 -20Q529 -20 393 65T179 309T101 688V768Q101 988 178 1146T391 1390T705 1476Q885 1476 1021 1391T1233 1147T1309 768ZM1058 688V770Q1058 932 1016 1044T896 1213T705
1271Q595 1271 516 1214T395 1044T353 770V688Q353 525 395 413T517 242T707 184Q820 184 898 242T1017 412T1058 688ZM351 1681Q351 1730 385 1763T475 1797Q532 1797 566 1764T600 1681Q600 1633 566 1600T475 1566Q419 1566 385 1599T351 1681ZM814 1680Q814
1729 848 1762T939 1796Q995 1796 1029 1763T1064 1680Q1064 1632 1030 1599T939 1565Q882 1565 848 1598T814 1680Z" />
<glyph unicode="&#xd7;" horiz-adv-x="1050" d="M392 515L125 243L257 107L525 380L793 107L925 243L658 515L923 786L792 922L525 650L258 922L127 786L392 515Z" />
<glyph unicode="&#xd8;" horiz-adv-x="1409" d="M1296 1517L322 -94H155L1131 1517H1296ZM1314 768V688Q1314 468 1238 310T1027 66T711 -20Q533 -20 397 65T183 309T105 688V768Q105 988 182 1146T395 1390T709 1476Q889 1476 1025 1391T1238 1147T1314 768ZM1062
688V770Q1062 932 1020 1044T900 1213T709 1271Q599 1271 520 1214T399 1044T357 770V688Q357 525 399 413T521 242T711 184Q824 184 902 242T1021 412T1062 688Z" />
<glyph unicode="&#xd9;" horiz-adv-x="1340" d="M965 1456H1215V483Q1215 317 1143 205T948 37T672 -20Q515 -20 392 36T199 205T128 483V1456H378V483Q378 378 414 311T516 211T672 179Q762 179 827 211T929 310T965 483V1456ZM600 1847L795 1546H594L327 1847H600Z" />
<glyph unicode="&#xda;" horiz-adv-x="1340" d="M965 1456H1215V483Q1215 317 1143 205T948 37T672 -20Q515 -20 392 36T199 205T128 483V1456H378V483Q378 378 414 311T516 211T672 179Q762 179 827 211T929 310T965 483V1456ZM549 1546L744 1847H1016L744 1546H549Z" />
<glyph unicode="&#xdb;" horiz-adv-x="1340" d="M965 1456H1215V483Q1215 317 1143 205T948 37T672 -20Q515 -20 392 36T199 205T128 483V1456H378V483Q378 378 414 311T516 211T672 179Q762 179 827 211T929 310T965 483V1456ZM741 1847L1018 1571V1560H823L670
1717L517 1560H326V1573L599 1847H741Z" />
<glyph unicode="&#xdc;" horiz-adv-x="1340" d="M965 1456H1215V483Q1215 317 1143 205T948 37T672 -20Q515 -20 392 36T199 205T128 483V1456H378V483Q378 378 414 311T516 211T672 179Q762 179 827 211T929 310T965 483V1456ZM314 1680Q314 1729 348 1762T438
1796Q495 1796 529 1763T563 1680Q563 1632 529 1599T438 1565Q382 1565 348 1598T314 1680ZM777 1679Q777 1728 811 1761T902 1795Q958 1795 992 1762T1027 1679Q1027 1631 993 1598T902 1564Q845 1564 811 1597T777 1679Z" />
<glyph unicode="&#xdd;" horiz-adv-x="1251" d="M287 1456L625 761L963 1456H1241L751 536V0H498V536L8 1456H287ZM507 1545L702 1846H974L702 1545H507Z" />
<glyph unicode="&#xde;" horiz-adv-x="1231" d="M149 1456H390V0H149V1456ZM245 1176H639Q806 1176 920 1120T1093 964T1153 738Q1153 612 1094 513T920 358T639 301H349V492H639Q737 492 796 527T883 618T911 736Q911 800 884 856T797 949T639 985H389L245 1176Z" />
<glyph unicode="&#xdf;" horiz-adv-x="1259" d="M378 1105V0H138V1107Q138 1330 257 1443T575 1557Q688 1557 778 1518T922 1401T976 1204Q976 1127 959 1078T918 993T878 919T860 826Q860 778 892 738T973 658T1069 573T1149 470T1182 336Q1182 220 1131 141T986
21T763 -20Q711 -20 654 -11T550 12T475 44L524 235Q557 215 619 193T752 171Q816 171 858 191T921 247T942 329Q942 382 910 423T829 502T733 583T652 684T619 820Q619 884 637 928T680 1010T722 1089T741 1189Q741 1245 719 1284T657 1345T568 1366Q480 1366
429 1305T378 1105Z" />
<glyph unicode="&#xe0;" horiz-adv-x="1104" d="M734 217V733Q734 819 687 870T543 921Q484 921 441 901T374 847T350 770H110Q110 856 165 932T320 1055T556 1102Q678 1102 772 1061T921 938T976 731V250Q976 176 986 118T1017 16V0H770Q753 39 744 99T734 217ZM769
658L771 509H598Q463 509 395 461T327 325Q327 259 371 215T499 171Q573 171 628 201T716 276T750 361L828 254Q816 213 787 166T712 77T601 7T452 -20Q346 -20 263 22T133 137T86 302Q86 474 214 566T580 658H769ZM495 1536L690 1235H489L222 1536H495Z" />
<glyph unicode="&#xe1;" horiz-adv-x="1104" d="M734 217V733Q734 819 687 870T543 921Q484 921 441 901T374 847T350 770H110Q110 856 165 932T320 1055T556 1102Q678 1102 772 1061T921 938T976 731V250Q976 176 986 118T1017 16V0H770Q753 39 744 99T734 217ZM769
658L771 509H598Q463 509 395 461T327 325Q327 259 371 215T499 171Q573 171 628 201T716 276T750 361L828 254Q816 213 787 166T712 77T601 7T452 -20Q346 -20 263 22T133 137T86 302Q86 474 214 566T580 658H769ZM444 1235L639 1536H911L639 1235H444Z" />
<glyph unicode="&#xe2;" horiz-adv-x="1104" d="M734 217V733Q734 819 687 870T543 921Q484 921 441 901T374 847T350 770H110Q110 856 165 932T320 1055T556 1102Q678 1102 772 1061T921 938T976 731V250Q976 176 986 118T1017 16V0H770Q753 39 744 99T734 217ZM769
658L771 509H598Q463 509 395 461T327 325Q327 259 371 215T499 171Q573 171 628 201T716 276T750 361L828 254Q816 213 787 166T712 77T601 7T452 -20Q346 -20 263 22T133 137T86 302Q86 474 214 566T580 658H769ZM636 1536L913 1260V1249H718L565 1406L412 1249H221V1262L494
1536H636Z" />
<glyph unicode="&#xe3;" horiz-adv-x="1104" d="M734 217V733Q734 819 687 870T543 921Q484 921 441 901T374 847T350 770H110Q110 856 165 932T320 1055T556 1102Q678 1102 772 1061T921 938T976 731V250Q976 176 986 118T1017 16V0H770Q753 39 744 99T734 217ZM769
658L771 509H598Q463 509 395 461T327 325Q327 259 371 215T499 171Q573 171 628 201T716 276T750 361L828 254Q816 213 787 166T712 77T601 7T452 -20Q346 -20 263 22T133 137T86 302Q86 474 214 566T580 658H769ZM784 1524L931 1513Q931 1440 902 1383T823 1292T710
1259Q661 1259 627 1273T565 1305T508 1336T438 1350Q400 1350 374 1322T347 1247L199 1255Q199 1327 228 1385T307 1477T420 1511Q461 1511 494 1498T558 1466T621 1434T692 1420Q730 1420 757 1449T784 1524Z" />
<glyph unicode="&#xe4;" horiz-adv-x="1104" d="M734 217V733Q734 819 687 870T543 921Q484 921 441 901T374 847T350 770H110Q110 856 165 932T320 1055T556 1102Q678 1102 772 1061T921 938T976 731V250Q976 176 986 118T1017 16V0H770Q753 39 744 99T734 217ZM769
658L771 509H598Q463 509 395 461T327 325Q327 259 371 215T499 171Q573 171 628 201T716 276T750 361L828 254Q816 213 787 166T712 77T601 7T452 -20Q346 -20 263 22T133 137T86 302Q86 474 214 566T580 658H769ZM210 1369Q210 1418 244 1451T334 1485Q391 1485
425 1452T459 1369Q459 1321 425 1288T334 1254Q278 1254 244 1287T210 1369ZM673 1368Q673 1417 707 1450T798 1484Q854 1484 888 1451T923 1368Q923 1320 889 1287T798 1253Q741 1253 707 1286T673 1368Z" />
<glyph unicode="&#xe5;" horiz-adv-x="1104" d="M734 217V733Q734 819 687 870T543 921Q484 921 441 901T374 847T350 770H110Q110 856 165 932T320 1055T556 1102Q678 1102 772 1061T921 938T976 731V250Q976 176 986 118T1017 16V0H770Q753 39 744 99T734 217ZM769
658L771 509H598Q463 509 395 461T327 325Q327 259 371 215T499 171Q573 171 628 201T716 276T750 361L828 254Q816 213 787 166T712 77T601 7T452 -20Q346 -20 263 22T133 137T86 302Q86 474 214 566T580 658H769ZM347 1420Q347 1505 409 1565T566 1626Q659 1626
721 1566T784 1420Q784 1334 722 1276T566 1218Q472 1218 410 1276T347 1420ZM454 1420Q454 1376 485 1343T566 1309Q616 1309 646 1342T677 1420Q677 1466 647 1499T566 1533Q516 1533 485 1500T454 1420Z" />
<glyph unicode="&#xe6;" horiz-adv-x="1730" d="M737 183V713Q737 805 690 857T553 910Q456 910 401 864T345 753L104 771Q104 867 160 941T318 1059T555 1102Q743 1102 857 1004T971 711V218L737 183ZM779 643L780 479H549Q472 479 420 455T341 392T314 307Q314
244 359 202T499 160Q547 160 596 178T688 224T755 283T782 343L899 194Q873 146 816 96T668 13T453 -21Q269 -21 171 69T72 311Q72 469 193 556T547 643H779ZM1254 -21Q1089 -21 975 47T802 234T743 507V564Q743 722 802 844T968 1034T1222 1102Q1436 1102 1553
971T1670 615V475H853V642H1431V671Q1431 739 1410 793T1343 878T1222 910Q1138 910 1083 864T1001 740T974 564V507Q974 414 1004 338T1100 216T1271 171Q1382 171 1451 201T1575 263L1646 102Q1617 79 1563 51T1431 1T1254 -21Z" />
<glyph unicode="&#xe7;" horiz-adv-x="1069" d="M566 172Q625 172 672 195T749 261T782 358H1009Q1007 253 947 167T788 31T569 -20Q404 -20 295 53T132 250T78 523V558Q78 708 132 831T295 1028T568 1102Q698 1102 796 1051T950 908T1009 695H782Q779 755 753
803T679 881T565 910Q468 910 415 859T340 727T319 558V523Q319 434 339 354T413 223T566 172ZM460 -2H639L627 -58Q684 -68 731 -106T779 -231Q779 -332 696 -393T450 -455L443 -319Q482 -319 513 -310T562 -280T581 -228Q581 -182 545 -165T429 -141L460 -2Z"
/>
<glyph unicode="&#xe8;" horiz-adv-x="1097" d="M601 -20Q440 -20 324 49T145 236T81 504V544Q81 714 145 839T320 1033T572 1102Q727 1102 829 1034T983 847T1034 572V469H198V642H796V661Q794 726 771 783T699 875T571 910Q491 910 436 866T352 739T323 544V504Q323
410 357 335T458 215T615 171Q702 171 770 206T888 305L1015 182Q963 105 862 43T601 -20ZM484 1536L679 1235H478L211 1536H484Z" />
<glyph unicode="&#xe9;" horiz-adv-x="1097" d="M601 -20Q440 -20 324 49T145 236T81 504V544Q81 714 145 839T320 1033T572 1102Q727 1102 829 1034T983 847T1034 572V469H198V642H796V661Q794 726 771 783T699 875T571 910Q491 910 436 866T352 739T323 544V504Q323
410 357 335T458 215T615 171Q702 171 770 206T888 305L1015 182Q963 105 862 43T601 -20ZM433 1235L628 1536H900L628 1235H433Z" />
<glyph unicode="&#xea;" horiz-adv-x="1097" d="M601 -20Q440 -20 324 49T145 236T81 504V544Q81 714 145 839T320 1033T572 1102Q727 1102 829 1034T983 847T1034 572V469H198V642H796V661Q794 726 771 783T699 875T571 910Q491 910 436 866T352 739T323 544V504Q323
410 357 335T458 215T615 171Q702 171 770 206T888 305L1015 182Q963 105 862 43T601 -20ZM625 1536L902 1260V1249H707L554 1406L401 1249H210V1262L483 1536H625Z" />
<glyph unicode="&#xeb;" horiz-adv-x="1097" d="M601 -20Q440 -20 324 49T145 236T81 504V544Q81 714 145 839T320 1033T572 1102Q727 1102 829 1034T983 847T1034 572V469H198V642H796V661Q794 726 771 783T699 875T571 910Q491 910 436 866T352 739T323 544V504Q323
410 357 335T458 215T615 171Q702 171 770 206T888 305L1015 182Q963 105 862 43T601 -20ZM198 1369Q198 1418 232 1451T322 1485Q379 1485 413 1452T447 1369Q447 1321 413 1288T322 1254Q266 1254 232 1287T198 1369ZM661 1368Q661 1417 695 1450T786 1484Q842
1484 876 1451T911 1368Q911 1320 877 1287T786 1253Q729 1253 695 1286T661 1368Z" />
<glyph unicode="&#xec;" horiz-adv-x="535" d="M385 1082V0H144V1082H385ZM197 1527L392 1226H191L-76 1527H197Z" />
<glyph unicode="&#xed;" horiz-adv-x="535" d="M385 1082V0H144V1082H385ZM146 1482L341 1783H613L341 1482H146Z" />
<glyph unicode="&#xee;" horiz-adv-x="535" d="M385 1082V0H144V1082H385ZM339 1527L616 1251V1240H421L268 1397L115 1240H-76V1253L197 1527H339Z" />
<glyph unicode="&#xef;" horiz-adv-x="535" d="M385 1082V0H144V1082H385ZM-88 1360Q-88 1409 -54 1442T36 1476Q93 1476 127 1443T161 1360Q161 1312 127 1279T36 1245Q-20 1245 -54 1278T-88 1360ZM375 1359Q375 1408 409 1441T500 1475Q556 1475 590 1442T625
1359Q625 1311 591 1278T500 1244Q443 1244 409 1277T375 1359Z" />
<glyph unicode="&#xf0;" horiz-adv-x="1188" d="M245 1389L320 1580Q548 1532 721 1405T992 1085T1090 641V556Q1090 386 1026 256T850 53T594 -20Q449 -20 339 45T166 221T104 468Q104 620 159 733T315 909T553 972Q666 972 757 921T902 785T961 600L874 602Q874
631 858 663T808 724T725 769T608 787Q523 787 464 749T375 638T345 468Q345 392 374 324T461 214T598 172Q678 172 733 220T818 352T848 542V643Q848 810 799 935T666 1151T473 1299T245 1389ZM988 1406L437 1043L362 1150L914 1512L988 1406Z" />
<glyph unicode="&#xf1;" horiz-adv-x="1140" d="M363 851V0H122V1082H349L363 851ZM320 581L242 582Q244 737 298 854T448 1036T674 1102Q779 1102 856 1063T975 935T1018 699V0H776V700Q776 778 754 823T689 888T583 908Q521 908 472 882T390 811T338 707T320
581ZM794 1524L941 1513Q941 1440 912 1383T833 1292T720 1259Q671 1259 637 1273T575 1305T518 1336T448 1350Q410 1350 384 1322T357 1247L209 1255Q209 1327 238 1385T317 1477T430 1511Q471 1511 504 1498T568 1466T631 1434T702 1420Q740 1420 767 1449T794
1524Z" />
<glyph unicode="&#xf2;" horiz-adv-x="1162" d="M78 529V552Q78 709 138 833T310 1029T580 1102Q739 1102 851 1030T1024 833T1084 552V529Q1084 373 1024 249T852 52T582 -20Q423 -20 311 52T138 248T78 529ZM319 552V529Q319 432 346 351T432 221T582 172Q672
172 730 220T815 350T843 529V552Q843 648 815 729T730 860T580 910Q489 910 432 861T347 730T319 552ZM506 1536L701 1235H500L233 1536H506Z" />
<glyph unicode="&#xf3;" horiz-adv-x="1162" d="M78 529V552Q78 709 138 833T310 1029T580 1102Q739 1102 851 1030T1024 833T1084 552V529Q1084 373 1024 249T852 52T582 -20Q423 -20 311 52T138 248T78 529ZM319 552V529Q319 432 346 351T432 221T582 172Q672
172 730 220T815 350T843 529V552Q843 648 815 729T730 860T580 910Q489 910 432 861T347 730T319 552ZM454 1235L649 1536H921L649 1235H454Z" />
<glyph unicode="&#xf4;" horiz-adv-x="1162" d="M78 529V552Q78 709 138 833T310 1029T580 1102Q739 1102 851 1030T1024 833T1084 552V529Q1084 373 1024 249T852 52T582 -20Q423 -20 311 52T138 248T78 529ZM319 552V529Q319 432 346 351T432 221T582 172Q672
172 730 220T815 350T843 529V552Q843 648 815 729T730 860T580 910Q489 910 432 861T347 730T319 552ZM647 1536L924 1260V1249H729L576 1406L423 1249H232V1262L505 1536H647Z" />
<glyph unicode="&#xf5;" horiz-adv-x="1162" d="M78 529V552Q78 709 138 833T310 1029T580 1102Q739 1102 851 1030T1024 833T1084 552V529Q1084 373 1024 249T852 52T582 -20Q423 -20 311 52T138 248T78 529ZM319 552V529Q319 432 346 351T432 221T582 172Q672
172 730 220T815 350T843 529V552Q843 648 815 729T730 860T580 910Q489 910 432 861T347 730T319 552ZM795 1524L942 1513Q942 1440 913 1383T834 1292T721 1259Q672 1259 638 1273T576 1305T519 1336T449 1350Q411 1350 385 1322T358 1247L210 1255Q210 1327
239 1385T318 1477T431 1511Q472 1511 505 1498T569 1466T632 1434T703 1420Q741 1420 768 1449T795 1524Z" />
<glyph unicode="&#xf6;" horiz-adv-x="1162" d="M78 529V552Q78 709 138 833T310 1029T580 1102Q739 1102 851 1030T1024 833T1084 552V529Q1084 373 1024 249T852 52T582 -20Q423 -20 311 52T138 248T78 529ZM319 552V529Q319 432 346 351T432 221T582 172Q672
172 730 220T815 350T843 529V552Q843 648 815 729T730 860T580 910Q489 910 432 861T347 730T319 552ZM220 1369Q220 1418 254 1451T344 1485Q401 1485 435 1452T469 1369Q469 1321 435 1288T344 1254Q288 1254 254 1287T220 1369ZM683 1368Q683 1417 717 1450T808
1484Q864 1484 898 1451T933 1368Q933 1320 899 1287T808 1253Q751 1253 717 1286T683 1368Z" />
<glyph unicode="&#xf7;" horiz-adv-x="1179" d="M459 171Q459 114 498 75T593 36Q649 36 688 75T728 171Q728 226 689 266T593 306Q538 306 499 266T459 171ZM459 869Q459 813 498 774T593 735Q649 735 688 774T728 869Q728 925 689 965T593 1005Q538 1005 499
965T459 869ZM129 429H1050V616H129V429Z" />
<glyph unicode="&#xf8;" horiz-adv-x="1158" d="M988 1213L325 -139H182L845 1213H988ZM78 529V552Q78 709 138 833T310 1029T580 1102Q739 1102 851 1030T1024 833T1084 552V529Q1084 373 1024 249T852 52T582 -20Q423 -20 311 52T138 248T78 529ZM319 552V529Q319
432 346 351T432 221T582 172Q672 172 730 220T815 350T843 529V552Q843 648 815 729T730 860T580 910Q489 910 432 861T347 730T319 552Z" />
<glyph unicode="&#xf9;" horiz-adv-x="1139" d="M775 255V1082H1017V0H789L775 255ZM809 480L890 482Q890 337 847 224T713 45T477 -20Q318 -20 219 74T119 383V1082H360V381Q360 303 384 258T448 194T536 175Q639 175 698 215T783 325T809 480ZM501 1536L696
1235H495L228 1536H501Z" />
<glyph unicode="&#xfa;" horiz-adv-x="1139" d="M775 255V1082H1017V0H789L775 255ZM809 480L890 482Q890 337 847 224T713 45T477 -20Q318 -20 219 74T119 383V1082H360V381Q360 303 384 258T448 194T536 175Q639 175 698 215T783 325T809 480ZM449 1235L644
1536H916L644 1235H449Z" />
<glyph unicode="&#xfb;" horiz-adv-x="1139" d="M775 255V1082H1017V0H789L775 255ZM809 480L890 482Q890 337 847 224T713 45T477 -20Q318 -20 219 74T119 383V1082H360V381Q360 303 384 258T448 194T536 175Q639 175 698 215T783 325T809 480ZM642 1536L919
1260V1249H724L571 1406L418 1249H227V1262L500 1536H642Z" />
<glyph unicode="&#xfc;" horiz-adv-x="1139" d="M775 255V1082H1017V0H789L775 255ZM809 480L890 482Q890 337 847 224T713 45T477 -20Q318 -20 219 74T119 383V1082H360V381Q360 303 384 258T448 194T536 175Q639 175 698 215T783 325T809 480ZM215 1369Q215
1418 249 1451T339 1485Q396 1485 430 1452T464 1369Q464 1321 430 1288T339 1254Q283 1254 249 1287T215 1369ZM678 1368Q678 1417 712 1450T803 1484Q859 1484 893 1451T928 1368Q928 1320 894 1287T803 1253Q746 1253 712 1286T678 1368Z" />
<glyph unicode="&#xfd;" horiz-adv-x="1003" d="M438 118L732 1082H990L556 -165Q541 -205 517 -252T455 -341T359 -410T221 -437Q189 -437 160 -432T104 -420L103 -236Q113 -237 127 -238T151 -239Q241 -239 287 -206T360 -92L438 118ZM272 1082L529 272L572
18L405 -25L12 1082H272ZM394 1235L589 1536H861L589 1235H394Z" />
<glyph unicode="&#xfe;" horiz-adv-x="1169" d="M371 1536V-416H129V1536H371ZM1076 551V530Q1076 373 1028 249T885 52T656 -20Q521 -20 432 45T292 226T224 492V573Q242 732 292 850T431 1035T653 1102Q791 1102 885 1033T1027 840T1076 551ZM835 530V551Q835
651 810 731T730 860T589 908Q525 908 479 887T402 827T354 739T330 629V435Q342 363 371 303T453 208T591 172Q678 172 731 221T810 351T835 530Z" />
<glyph unicode="&#xff;" horiz-adv-x="1003" d="M438 118L732 1082H990L556 -165Q541 -205 517 -252T455 -341T359 -410T221 -437Q189 -437 160 -432T104 -420L103 -236Q113 -237 127 -238T151 -239Q241 -239 287 -206T360 -92L438 118ZM272 1082L529 272L572
18L405 -25L12 1082H272ZM160 1369Q160 1418 194 1451T284 1485Q341 1485 375 1452T409 1369Q409 1321 375 1288T284 1254Q228 1254 194 1287T160 1369ZM623 1368Q623 1417 657 1450T748 1484Q804 1484 838 1451T873 1368Q873 1320 839 1287T748 1253Q691 1253
657 1286T623 1368Z" />
<glyph unicode="&#x2013;" horiz-adv-x="1345" d="M1214 426V611H131V426H1214Z" />
<glyph unicode="&#x2014;" horiz-adv-x="1600" d="M1469 426V611H131V426H1469Z" />
<glyph unicode="&#x2018;" horiz-adv-x="447" d="M101 1062V1198Q101 1261 123 1328T186 1457T279 1563L399 1488Q359 1425 334 1356T308 1199V1062H101Z" />
<glyph unicode="&#x2019;" horiz-adv-x="442" d="M353 1536V1395Q353 1332 331 1265T268 1136T176 1029L55 1105Q96 1167 121 1236T147 1393V1536H353Z" />
<glyph unicode="&#x201a;" horiz-adv-x="462" d="M353 207L352 73Q352 10 330 -57T267 -186T175 -293L53 -218Q95 -155 118 -86T141 71V207H353Z" />
<glyph unicode="&#x201c;" horiz-adv-x="779" d="M109 1062V1198Q109 1261 131 1328T194 1457T287 1563L407 1488Q367 1425 342 1356T316 1199V1062H109ZM437 1062V1198Q437 1261 459 1328T522 1457T615 1563L735 1488Q695 1425 670 1356T644 1199V1062H437Z" />
<glyph unicode="&#x201d;" horiz-adv-x="787" d="M366 1536V1395Q366 1332 344 1265T281 1136T189 1029L68 1105Q109 1167 134 1236T160 1393V1536H366ZM693 1536V1395Q693 1332 671 1265T608 1136T516 1029L395 1105Q436 1167 461 1236T487 1393V1536H693Z" />
<glyph unicode="&#x201e;" horiz-adv-x="768" d="M353 254L352 73Q352 7 331 -64T270 -201T179 -312L53 -237Q95 -169 118 -95T141 71V254H353ZM673 254L672 73Q672 7 650 -64T587 -201T495 -312L369 -237Q411 -169 436 -95T461 71V254H673Z" />
<glyph unicode="&#x2022;" horiz-adv-x="716" d="M138 730V769Q138 863 197 923T359 983Q462 983 522 923T582 769V730Q582 637 523 578T360 518Q258 518 198 577T138 730Z" />
<glyph unicode="&#x2039;" horiz-adv-x="628" d="M560 937L309 534L108 535V548L395 937H560ZM309 543L560 139H395L108 529V542L309 543Z" />
<glyph unicode="&#x203a;" horiz-adv-x="617" d="M85 139L336 542L538 541V528L251 139H85ZM85 936H251L538 547V534L336 533L85 936Z" />
</font>
</defs>
</svg>
